<svg width="77" height="77" viewBox="0 0 77 77" fill="none" xmlns="http://www.w3.org/2000/svg">
<g clip-path="url(#clip0_1_8)">
<path d="M65.5062 9.00208H11.4938C5.15614 9.00208 -2.19725e-06 14.1582 -2.19725e-06 20.4958V46.2161C-2.19725e-06 46.8819 0.53975 47.4218 1.20568 47.4218C1.87146 47.4218 2.41136 46.882 2.41136 46.2161V20.4958C2.41136 15.4878 6.48574 11.4133 11.4939 11.4133H65.5064C70.5144 11.4133 74.5889 15.4877 74.5889 20.4958V56.5042C74.5889 61.5122 70.5146 65.5867 65.5064 65.5867H11.4938C6.48574 65.5867 2.41121 61.5123 2.41121 56.5042V51.36C2.41121 50.6943 1.87146 50.1544 1.20553 50.1544C0.53975 50.1544 -0.000152588 50.6941 -0.000152588 51.36V56.5042C-0.000152588 62.8418 5.15599 67.9979 11.4936 67.9979H65.5061C71.8437 67.9979 76.9998 62.8418 76.9998 56.5042V20.4958C77 14.1582 71.8439 9.00208 65.5062 9.00208Z" fill="#F15454"/>
<path d="M54.5891 37.4891L49.445 34.1454C48.8867 33.7827 48.1401 33.9411 47.777 34.4993C47.4143 35.0576 47.5725 35.8043 48.1309 36.1673L51.7198 38.5L29.4175 52.9968V24.0034L44.2729 33.6594C44.831 34.022 45.578 33.8638 45.9407 33.3055C46.3038 32.7473 46.1453 32.0006 45.5869 31.6375L28.8687 20.7709C28.0806 20.2585 27.0063 20.8447 27.0063 21.7817V55.218C27.0063 56.1544 28.0803 56.7416 28.8688 56.2288L54.5891 39.5106C55.3078 39.0437 55.3077 37.9563 54.5891 37.4891Z" fill="white"/>
</g>
<defs>
<clipPath id="clip0_1_8">
<rect width="77" height="77" fill="white"/>
</clipPath>
</defs>
</svg>
